<mxfile host="app.diagrams.net" modified="2024-06-06T08:59:15.226Z" agent="Mozilla/5.0 (Macintosh; Intel Mac OS X 10_15_7) AppleWebKit/537.36 (KHTML, like Gecko) Chrome/124.0.0.0 Safari/537.36" version="24.4.14" etag="_dIBepFh9jnRB_Icosf2" type="github">
  <diagram name="第 1 页" id="l5kmgf7hHeCKbB3nAudd">
    <mxGraphModel>
      <root>
        <mxCell id="0" />
        <mxCell id="1" parent="0" />
      </root>
    </mxGraphModel>
  </diagram>
</mxfile>
